<svg width="88" height="32" viewBox="0 0 88 32" fill="none" xmlns="http://www.w3.org/2000/svg">
<path d="M47.6383 10.436L43.3903 18.626V23H40.8703V18.626L36.6043 10.436H39.4483L42.1483 16.178L44.8303 10.436H47.6383ZM53.5196 23.162C52.5596 23.162 51.6956 22.952 50.9276 22.532C50.1596 22.1 49.5536 21.494 49.1096 20.714C48.6776 19.934 48.4616 19.034 48.4616 18.014C48.4616 16.994 48.6836 16.094 49.1276 15.314C49.5836 14.534 50.2016 13.934 50.9816 13.514C51.7616 13.082 52.6316 12.866 53.5916 12.866C54.5516 12.866 55.4216 13.082 56.2016 13.514C56.9816 13.934 57.5936 14.534 58.0376 15.314C58.4936 16.094 58.7216 16.994 58.7216 18.014C58.7216 19.034 58.4876 19.934 58.0196 20.714C57.5636 21.494 56.9396 22.1 56.1476 22.532C55.3676 22.952 54.4916 23.162 53.5196 23.162ZM53.5196 20.966C53.9756 20.966 54.4016 20.858 54.7976 20.642C55.2056 20.414 55.5296 20.078 55.7696 19.634C56.0096 19.19 56.1296 18.65 56.1296 18.014C56.1296 17.066 55.8776 16.34 55.3736 15.836C54.8816 15.32 54.2756 15.062 53.5556 15.062C52.8356 15.062 52.2296 15.32 51.7376 15.836C51.2576 16.34 51.0176 17.066 51.0176 18.014C51.0176 18.962 51.2516 19.694 51.7196 20.21C52.1996 20.714 52.7996 20.966 53.5196 20.966ZM69.9841 13.028V23H67.4461V21.74C67.1221 22.172 66.6961 22.514 66.1681 22.766C65.6521 23.006 65.0881 23.126 64.4761 23.126C63.6961 23.126 63.0061 22.964 62.4061 22.64C61.8061 22.304 61.3321 21.818 60.9841 21.182C60.6481 20.534 60.4801 19.766 60.4801 18.878V13.028H63.0001V18.518C63.0001 19.31 63.1981 19.922 63.5941 20.354C63.9901 20.774 64.5301 20.984 65.2141 20.984C65.9101 20.984 66.4561 20.774 66.8521 20.354C67.2481 19.922 67.4461 19.31 67.4461 18.518V13.028H69.9841Z" fill="#5CE1E6"/>
<path d="M81.6325 14.324C81.6325 14.996 81.4705 15.626 81.1465 16.214C80.8345 16.802 80.3365 17.276 79.6525 17.636C78.9805 17.996 78.1285 18.176 77.0965 18.176H74.9905V23H72.4705V10.436H77.0965C78.0685 10.436 78.8965 10.604 79.5805 10.94C80.2645 11.276 80.7745 11.738 81.1105 12.326C81.4585 12.914 81.6325 13.58 81.6325 14.324ZM76.9885 16.142C77.6845 16.142 78.2005 15.986 78.5365 15.674C78.8725 15.35 79.0405 14.9 79.0405 14.324C79.0405 13.1 78.3565 12.488 76.9885 12.488H74.9905V16.142H76.9885ZM85.9417 10.436V23H83.4217V10.436H85.9417Z" fill="white"/>
<path d="M16.4062 0C13.2417 -3.77363e-08 10.1483 0.938383 7.51713 2.69649C4.88594 4.45459 2.83518 6.95345 1.62418 9.87706C0.413176 12.8007 0.096322 16.0177 0.713685 19.1214C1.33105 22.2251 2.8549 25.0761 5.09254 27.3137C7.33018 29.5513 10.1811 31.0752 13.2848 31.6926C16.3885 32.3099 19.6056 31.9931 22.5292 30.7821C25.4528 29.5711 27.9517 27.5203 29.7098 24.8891C31.4679 22.2579 32.4062 19.1645 32.4062 16L24.4062 16C24.4062 17.5823 23.9371 19.129 23.058 20.4446C22.179 21.7602 20.9295 22.7855 19.4677 23.391C18.0059 23.9965 16.3974 24.155 14.8455 23.8463C13.2937 23.5376 11.8682 22.7757 10.7494 21.6569C9.63057 20.538 8.86865 19.1126 8.55997 17.5607C8.25129 16.0089 8.40971 14.4003 9.01521 12.9385C9.62072 11.4767 10.6461 10.2273 11.9617 9.34824C13.2773 8.46919 14.824 8 16.4062 8V0Z" fill="white"/>
<path d="M16.4062 0C14.3051 -2.5056e-08 12.2245 0.413852 10.2833 1.21793C8.3421 2.022 6.57828 3.20055 5.09254 4.68629C3.6068 6.17203 2.42825 7.93586 1.62418 9.87707C0.820102 11.8183 0.40625 13.8989 0.40625 16H8.40625C8.40625 14.9494 8.61318 13.9091 9.01521 12.9385C9.41725 11.9679 10.0065 11.086 10.7494 10.3431C11.4923 9.60028 12.3742 9.011 13.3448 8.60896C14.3154 8.20693 15.3557 8 16.4062 8V0Z" fill="#5CE1E6"/>
<circle cx="16.4062" cy="16" r="5" fill="#5CE1E6"/>
<path d="M21.4062 16C21.4062 15.3434 21.2769 14.6932 21.0256 14.0866C20.7744 13.48 20.4061 12.9288 19.9418 12.4645C19.4775 12.0002 18.9263 11.6319 18.3197 11.3806C17.713 11.1293 17.0629 11 16.4062 11C15.7496 11 15.0995 11.1293 14.4928 11.3806C13.8862 11.6319 13.335 12.0002 12.8707 12.4645C12.4064 12.9288 12.0381 13.48 11.7869 14.0866C11.5356 14.6932 11.4062 15.3434 11.4063 16L16.4062 16H21.4062Z" fill="white"/>
</svg>
